<?xml version="1.0" encoding="utf-8"?>
<!-- Generator: Adobe Illustrator 16.0.0, SVG Export Plug-In . SVG Version: 6.00 Build 0)  -->
<!DOCTYPE svg PUBLIC "-//W3C//DTD SVG 1.1//EN" "http://www.w3.org/Graphics/SVG/1.1/DTD/svg11.dtd">
<svg version="1.1" id="Capa_1" xmlns="http://www.w3.org/2000/svg" xmlns:xlink="http://www.w3.org/1999/xlink" x="0px" y="0px"
	 width="317.218px" height="95.422px" viewBox="0 0 317.218 95.422" enable-background="new 0 0 317.218 95.422"
	 xml:space="preserve">
<g>
	<path fill="#939393" d="M71.386,47.222c-0.067-7.533,6.167-11.196,6.452-11.363c-3.53-5.152-9.001-5.852-10.926-5.908
		c-4.595-0.482-9.054,2.75-11.392,2.75c-2.39,0-5.994-2.703-9.877-2.626c-5,0.078-9.681,2.972-12.244,7.471
		c-5.295,9.163-1.345,22.631,3.727,30.039c2.536,3.631,5.502,7.682,9.383,7.539c3.798-0.156,5.215-2.422,9.796-2.422
		c4.539,0,5.87,2.422,9.829,2.326c4.072-0.061,6.639-3.645,9.088-7.304c2.932-4.151,4.108-8.255,4.154-8.468
		C79.284,59.229,71.469,56.243,71.386,47.222"/>
	<path fill="#939393" d="M63.911,25.077c2.04-2.554,3.439-6.028,3.05-9.552c-2.955,0.128-6.651,2.044-8.78,4.542
		c-1.881,2.199-3.562,5.805-3.131,9.199C58.372,29.512,61.78,27.589,63.911,25.077"/>
	<path fill="#939393" d="M126.374,74.6h-5.304l-2.907-9.133h-10.101l-2.768,9.133h-5.167l10.01-31.091h6.183L126.374,74.6z
		 M117.287,61.637l-2.629-8.118c-0.275-0.831-0.802-2.785-1.567-5.859h-0.094c-0.309,1.324-0.802,3.276-1.476,5.859l-2.584,8.118
		H117.287z"/>
	<path fill="#939393" d="M152.069,63.116c0,3.812-1.034,6.825-3.108,9.037c-1.855,1.968-4.159,2.953-6.911,2.953
		c-2.969,0-5.105-1.058-6.402-3.181v11.766h-4.979V59.555c0-2.402-0.062-4.854-0.186-7.373h4.381l0.279,3.555h0.093
		c1.662-2.678,4.183-4.016,7.563-4.016c2.647,0,4.855,1.043,6.62,3.131C151.184,56.949,152.069,59.701,152.069,63.116
		 M146.995,63.297c0-2.181-0.49-3.982-1.478-5.4c-1.077-1.473-2.523-2.211-4.338-2.211c-1.226,0-2.343,0.412-3.341,1.224
		c-1,0.816-1.652,1.885-1.96,3.209c-0.153,0.615-0.231,1.116-0.231,1.515v3.74c0,1.627,0.501,3.004,1.499,4.131
		c0.999,1.123,2.297,1.68,3.897,1.68c1.876,0,3.335-0.723,4.38-2.168C146.472,67.574,146.995,65.664,146.995,63.297"/>
	<path fill="#939393" d="M177.853,63.116c0,3.812-1.036,6.825-3.105,9.037c-1.856,1.968-4.163,2.953-6.915,2.953
		c-2.967,0-5.104-1.058-6.4-3.181v11.766h-4.981V59.555c0-2.402-0.062-4.854-0.183-7.373h4.381l0.276,3.555h0.095
		c1.657-2.678,4.178-4.016,7.565-4.016c2.643,0,4.851,1.043,6.618,3.131C176.966,56.949,177.853,59.701,177.853,63.116
		 M172.776,63.297c0-2.181-0.492-3.982-1.478-5.4c-1.074-1.473-2.52-2.211-4.332-2.211c-1.23,0-2.347,0.412-3.346,1.224
		c-1.001,0.816-1.65,1.885-1.96,3.209c-0.152,0.615-0.233,1.116-0.233,1.515v3.74c0,1.627,0.502,3.004,1.499,4.131
		c1.003,1.115,2.298,1.68,3.898,1.68c1.88,0,3.341-0.723,4.381-2.168C172.252,67.574,172.776,65.664,172.776,63.297"/>
	<path fill="#939393" d="M206.682,65.879c0,2.649-0.923,4.797-2.762,6.461c-2.024,1.81-4.85,2.719-8.468,2.719
		c-3.349,0-6.028-0.643-8.054-1.936l1.152-4.151c2.183,1.294,4.585,1.94,7.196,1.94c1.879,0,3.339-0.426,4.38-1.271
		c1.046-0.843,1.57-1.975,1.57-3.388c0-1.261-0.434-2.319-1.291-3.181c-0.862-0.862-2.289-1.664-4.289-2.402
		c-5.445-2.027-8.167-5-8.167-8.904c0-2.551,0.959-4.639,2.882-6.268c1.92-1.634,4.465-2.448,7.635-2.448
		c2.829,0,5.185,0.493,7.057,1.477l-1.248,4.059c-1.763-0.955-3.752-1.432-5.975-1.432c-1.759,0-3.138,0.436-4.125,1.299
		c-0.826,0.763-1.248,1.7-1.248,2.812c0,1.228,0.48,2.247,1.431,3.042c0.831,0.738,2.335,1.541,4.521,2.402
		c2.676,1.078,4.643,2.332,5.901,3.777C206.05,61.932,206.682,63.73,206.682,65.879"/>
	<path fill="#939393" d="M223.194,55.918h-5.492v10.887c0,2.77,0.969,4.15,2.904,4.15c0.892,0,1.629-0.076,2.214-0.23l0.139,3.78
		c-0.981,0.368-2.275,0.551-3.873,0.551c-1.966,0-3.505-0.603-4.615-1.803c-1.106-1.198-1.661-3.213-1.661-6.043v-11.3h-3.267
		v-3.738h3.267v-4.107l4.893-1.476v5.583h5.492V55.918z"/>
	<path fill="#939393" d="M247.912,63.205c0,3.447-0.981,6.273-2.951,8.486c-2.058,2.277-4.795,3.415-8.209,3.415
		c-3.294,0-5.912-1.091-7.866-3.271c-1.953-2.187-2.929-4.937-2.929-8.258c0-3.473,1.008-6.318,3.021-8.533
		c2.015-2.211,4.728-3.317,8.142-3.317c3.292,0,5.93,1.091,7.933,3.273C246.962,57.121,247.912,59.853,247.912,63.205
		 M242.751,63.318c0-2.053-0.445-3.814-1.335-5.285c-1.043-1.781-2.538-2.674-4.477-2.674c-1.994,0-3.526,0.893-4.565,2.674
		c-0.896,1.471-1.336,3.265-1.336,5.381c0,2.053,0.44,3.822,1.336,5.289c1.077,1.783,2.58,2.674,4.526,2.674
		c1.902,0,3.396-0.912,4.479-2.715C242.289,67.153,242.751,65.379,242.751,63.318"/>
	<path fill="#939393" d="M264.111,56.562c-0.494-0.092-1.019-0.139-1.57-0.139c-1.752,0-3.105,0.659-4.06,1.983
		c-0.831,1.173-1.243,2.646-1.243,4.431V74.6h-4.981V59.238c0-2.58-0.047-4.935-0.146-7.055h4.338l0.183,4.291h0.139
		c0.527-1.477,1.356-2.662,2.489-3.553c1.109-0.805,2.31-1.203,3.602-1.203c0.461,0,0.876,0.035,1.247,0.092L264.111,56.562z"/>
	<path fill="#939393" d="M286.387,62.33c0,0.894-0.057,1.645-0.18,2.256h-14.942c0.054,2.219,0.78,3.91,2.168,5.08
		c1.258,1.045,2.886,1.568,4.886,1.568c2.213,0,4.231-0.352,6.044-1.062l0.782,3.458c-2.121,0.925-4.626,1.382-7.518,1.382
		c-3.476,0-6.204-1.021-8.189-3.061c-1.979-2.045-2.972-4.791-2.972-8.23c0-3.381,0.917-6.193,2.768-8.443
		c1.937-2.396,4.549-3.594,7.84-3.594c3.23,0,5.678,1.197,7.339,3.594C285.727,57.178,286.387,59.532,286.387,62.33 M281.638,61.037
		c0.036-1.477-0.292-2.75-0.967-3.828c-0.864-1.387-2.19-2.078-3.97-2.078c-1.628,0-2.952,0.672-3.964,2.028
		c-0.828,1.077-1.321,2.373-1.473,3.878H281.638z"/>
	<path fill="#939393" d="M114.897,32.383h-2.602l-1.428-4.485h-4.965l-1.359,4.485h-2.537l4.919-15.272h3.036L114.897,32.383z
		 M110.436,26.015l-1.291-3.99c-0.14-0.405-0.392-1.365-0.771-2.877h-0.046c-0.149,0.647-0.393,1.609-0.723,2.877l-1.269,3.99
		H110.436z"/>
	<path fill="#939393" d="M127.182,21.368l-4.17,11.014h-2.381l-4.033-11.014h2.628l1.882,5.824c0.315,0.967,0.582,1.898,0.793,2.787
		h0.065c0.182-0.801,0.443-1.729,0.795-2.787l1.854-5.824H127.182z"/>
	<path fill="#939393" d="M138.288,32.382h-2.2l-0.183-1.27h-0.067c-0.753,1.012-1.827,1.518-3.215,1.518
		c-1.043,0-1.883-0.334-2.52-0.995c-0.573-0.604-0.858-1.353-0.858-2.243c0-1.346,0.561-2.371,1.688-3.082
		c1.124-0.711,2.709-1.058,4.746-1.041V25.06c0-1.446-0.762-2.174-2.287-2.174c-1.087,0-2.044,0.273-2.879,0.814l-0.496-1.605
		c1.024-0.633,2.288-0.951,3.784-0.951c2.888,0,4.328,1.52,4.328,4.557v4.057C138.129,30.855,138.181,31.731,138.288,32.382
		 M135.75,28.599v-1.701c-2.705-0.045-4.056,0.694-4.056,2.222c0,0.575,0.155,1.003,0.474,1.293
		c0.315,0.285,0.715,0.428,1.194,0.428c0.539,0,1.042-0.17,1.499-0.511c0.458-0.34,0.74-0.771,0.844-1.301L135.75,28.599z"/>
	<path fill="#939393" d="M145.111,18.081c0,0.441-0.146,0.792-0.437,1.068c-0.285,0.271-0.654,0.404-1.109,0.404
		c-0.408,0-0.749-0.139-1.027-0.414c-0.279-0.279-0.422-0.633-0.422-1.055c0-0.426,0.146-0.772,0.432-1.042
		c0.287-0.272,0.642-0.409,1.067-0.409c0.421,0,0.774,0.137,1.062,0.409C144.965,17.312,145.111,17.659,145.111,18.081
		 M144.835,32.382h-2.446V21.368h2.446V32.382z"/>
	<rect x="149.187" y="16.315" fill="#939393" width="2.445" height="16.066"/>
	<path fill="#939393" d="M164.254,32.382h-2.2l-0.178-1.27h-0.062c-0.76,1.012-1.829,1.518-3.221,1.518
		c-1.041,0-1.88-0.334-2.516-0.995c-0.574-0.604-0.862-1.353-0.862-2.243c0-1.346,0.563-2.371,1.689-3.082
		c1.127-0.711,2.706-1.058,4.747-1.041V25.06c0-1.446-0.762-2.174-2.287-2.174c-1.091,0-2.048,0.273-2.878,0.814l-0.5-1.605
		c1.026-0.633,2.287-0.951,3.783-0.951c2.888,0,4.328,1.52,4.328,4.557v4.057C164.094,30.855,164.15,31.731,164.254,32.382
		 M161.717,28.599v-1.701c-2.707-0.045-4.056,0.694-4.056,2.222c0,0.575,0.156,1.003,0.473,1.293
		c0.316,0.285,0.715,0.428,1.195,0.428c0.539,0,1.038-0.17,1.498-0.511c0.455-0.34,0.74-0.771,0.844-1.301L161.717,28.599z"/>
	<path fill="#939393" d="M178.87,26.718c0,1.857-0.513,3.338-1.537,4.44c-0.909,0.981-2.016,1.474-3.334,1.474
		c-1.572,0-2.728-0.648-3.468-1.947h-0.045l-0.134,1.701h-2.088c0.057-0.891,0.087-1.882,0.087-2.969v-13.1h2.449v6.66
		c0.727-1.223,1.904-1.836,3.533-1.836c1.337,0,2.427,0.51,3.269,1.532C178.451,23.689,178.87,25.042,178.87,26.718 M176.383,26.808
		c0-1.074-0.244-1.947-0.73-2.629c-0.529-0.739-1.247-1.111-2.154-1.111c-0.604,0-1.146,0.197-1.629,0.589
		c-0.484,0.394-0.808,0.913-0.972,1.565c-0.063,0.255-0.09,0.512-0.09,0.769v1.923c0,0.761,0.246,1.408,0.753,1.951
		c0.509,0.541,1.138,0.814,1.897,0.814c0.921,0,1.637-0.345,2.152-1.041C176.123,28.946,176.383,28.002,176.383,26.808"/>
	<rect x="182.496" y="16.315" fill="#939393" width="2.45" height="16.066"/>
	<path fill="#939393" d="M198.362,26.354c0,0.44-0.036,0.809-0.092,1.109h-7.343c0.029,1.09,0.383,1.918,1.061,2.492
		c0.625,0.516,1.421,0.773,2.405,0.773c1.087,0,2.077-0.174,2.966-0.523l0.381,1.703c-1.04,0.451-2.27,0.678-3.69,0.678
		c-1.707,0-3.047-0.502-4.024-1.505c-0.974-1.006-1.46-2.353-1.46-4.046c0-1.659,0.45-3.044,1.363-4.146
		c0.95-1.176,2.232-1.767,3.849-1.767c1.586,0,2.784,0.591,3.604,1.767C198.034,23.823,198.362,24.981,198.362,26.354
		 M196.026,25.721c0.012-0.726-0.143-1.353-0.475-1.88c-0.428-0.679-1.074-1.021-1.951-1.021c-0.802,0-1.449,0.332-1.953,0.997
		c-0.405,0.532-0.642,1.165-0.72,1.904H196.026z"/>
	<path fill="#939393" d="M218.598,26.784c0,1.695-0.483,3.082-1.452,4.17c-1.015,1.119-2.358,1.678-4.034,1.678
		c-1.616,0-2.904-0.535-3.863-1.609c-0.957-1.072-1.438-2.424-1.438-4.057c0-1.706,0.493-3.105,1.487-4.191
		c0.989-1.084,2.319-1.629,3.997-1.629c1.616,0,2.917,0.535,3.901,1.606C218.13,23.792,218.598,25.14,218.598,26.784
		 M216.057,26.843c0-1.01-0.218-1.875-0.656-2.599c-0.515-0.873-1.242-1.308-2.192-1.308c-0.984,0-1.733,0.435-2.245,1.308
		c-0.441,0.724-0.659,1.606-0.659,2.644c0,1.014,0.224,1.877,0.659,2.6c0.532,0.872,1.27,1.311,2.223,1.311
		c0.93,0,1.667-0.444,2.189-1.33C215.833,28.725,216.057,27.852,216.057,26.843"/>
	<path fill="#939393" d="M231.787,32.383h-2.446v-6.325c0-1.949-0.74-2.922-2.222-2.922c-0.729,0-1.311,0.269-1.767,0.805
		c-0.457,0.535-0.68,1.168-0.68,1.891v6.549h-2.45v-7.863c0-0.97-0.03-2.019-0.089-3.154h2.152l0.113,1.701h0.068
		c0.285-0.525,0.71-0.965,1.269-1.312c0.664-0.409,1.403-0.613,2.218-0.613c1.027,0,1.886,0.335,2.564,1
		c0.848,0.813,1.269,2.03,1.269,3.647V32.383z"/>
	<path fill="#939393" d="M247.806,23.203h-2.692v5.351c0,1.359,0.471,2.037,1.425,2.037c0.438,0,0.802-0.036,1.083-0.114l0.071,1.86
		c-0.482,0.182-1.118,0.272-1.903,0.272c-0.965,0-1.716-0.296-2.262-0.882c-0.545-0.592-0.82-1.582-0.82-2.973v-5.552h-1.609V21.37
		h1.609v-2.019l2.4-0.724v2.738h2.698V23.203z"/>
	<path fill="#939393" d="M260.745,32.383h-2.448v-6.278c0-1.98-0.743-2.969-2.22-2.969c-1.131,0-1.911,0.572-2.335,1.722
		c-0.075,0.243-0.114,0.536-0.114,0.882v6.641h-2.446V16.317h2.446v6.616h0.045c0.77-1.194,1.88-1.788,3.307-1.788
		c1.02,0,1.853,0.33,2.521,0.996c0.827,0.83,1.244,2.064,1.244,3.693V32.383z"/>
	<path fill="#939393" d="M273.349,26.354c0,0.44-0.029,0.809-0.092,1.109h-7.34c0.027,1.09,0.384,1.918,1.062,2.492
		c0.619,0.516,1.419,0.773,2.399,0.773c1.09,0,2.082-0.174,2.964-0.523l0.387,1.703c-1.041,0.451-2.275,0.678-3.696,0.678
		c-1.703,0-3.046-0.502-4.023-1.505c-0.974-1.006-1.461-2.353-1.461-4.046c0-1.659,0.452-3.044,1.36-4.146
		c0.95-1.176,2.235-1.767,3.848-1.767c1.591,0,2.793,0.591,3.607,1.767C273.02,23.823,273.349,24.981,273.349,26.354
		 M271.013,25.721c0.016-0.726-0.146-1.353-0.474-1.88c-0.426-0.679-1.074-1.021-1.95-1.021c-0.802,0-1.451,0.332-1.95,0.997
		c-0.409,0.532-0.646,1.165-0.722,1.904H271.013z"/>
</g>
<path fill="none" stroke="#939393" stroke-width="2" stroke-miterlimit="10" d="M305.173,94.422H12.049
	C5.959,94.422,1,89.48,1,83.389V12.04C1,5.952,5.959,1,12.049,1h293.12c6.085,0,11.049,4.952,11.049,11.04v71.349
	C316.224,89.48,311.26,94.422,305.173,94.422"/>
</svg>
