<?xml version="1.0" encoding="utf-8"?>
<!-- Generator: Adobe Illustrator 16.0.0, SVG Export Plug-In . SVG Version: 6.00 Build 0)  -->
<!DOCTYPE svg PUBLIC "-//W3C//DTD SVG 1.1//EN" "http://www.w3.org/Graphics/SVG/1.1/DTD/svg11.dtd">
<svg version="1.1" id="Capa_1" xmlns="http://www.w3.org/2000/svg" xmlns:xlink="http://www.w3.org/1999/xlink" x="0px" y="0px"
	 width="418.088px" height="216.088px" viewBox="0 0 418.088 216.088" enable-background="new 0 0 418.088 216.088"
	 xml:space="preserve">
<g>
	<path fill="none" stroke="#939393" stroke-width="2" stroke-miterlimit="10" d="M402.508,215.088H15.585
		C7.547,215.088,1,208.565,1,200.524v-24.181c0-8.036,6.547-14.573,14.585-14.573h386.919c8.031,0,14.584,6.537,14.584,14.573
		v24.181C417.096,208.565,410.543,215.088,402.508,215.088"/>
	<g enable-background="new    ">
		<path fill="#939393" d="M50.215,179.291h6.073c5.499,0,9.298,3.774,9.298,8.698v0.05c0,4.924-3.799,8.748-9.298,8.748h-6.073
			V179.291z M52.189,181.116v13.847h4.099c4.424,0,7.248-3,7.248-6.874v-0.05c0-3.874-2.824-6.923-7.248-6.923H52.189z"/>
		<path fill="#939393" d="M68.64,190.389v-0.05c0-3.649,2.85-6.749,6.749-6.749c3.874,0,6.723,3.05,6.723,6.699v0.05
			c0,3.649-2.874,6.748-6.773,6.748C71.464,197.087,68.64,194.038,68.64,190.389z M80.137,190.389v-0.05
			c0-2.774-2.074-5.049-4.799-5.049c-2.799,0-4.724,2.274-4.724,4.999v0.05c0,2.774,2.049,5.023,4.774,5.023
			C78.188,195.362,80.137,193.113,80.137,190.389z"/>
		<path fill="#939393" d="M83.861,183.865h2.049l3.399,10.372l3.474-10.422h1.6l3.499,10.422l3.399-10.372h2l-4.549,13.021h-1.674
			l-3.474-10.197l-3.499,10.197h-1.7L83.861,183.865z"/>
		<path fill="#939393" d="M106.486,183.865h1.925v2.249c0.85-1.399,2.199-2.524,4.424-2.524c3.124,0,4.949,2.1,4.949,5.174v8.023
			h-1.925v-7.548c0-2.399-1.299-3.899-3.574-3.899c-2.225,0-3.874,1.625-3.874,4.049v7.398h-1.925V183.865z"/>
		<path fill="#939393" d="M122.061,178.542h1.925v18.245h-1.925V178.542z"/>
		<path fill="#939393" d="M127.66,190.389v-0.05c0-3.649,2.85-6.749,6.749-6.749c3.874,0,6.723,3.05,6.723,6.699v0.05
			c0,3.649-2.874,6.748-6.773,6.748C130.484,197.087,127.66,194.038,127.66,190.389z M139.157,190.389v-0.05
			c0-2.774-2.074-5.049-4.799-5.049c-2.799,0-4.724,2.274-4.724,4.999v0.05c0,2.774,2.049,5.023,4.774,5.023
			C137.208,195.362,139.157,193.113,139.157,190.389z"/>
		<path fill="#939393" d="M143.636,193.038v-0.05c0-2.725,2.25-4.174,5.523-4.174c1.65,0,2.824,0.225,3.974,0.55v-0.45
			c0-2.324-1.425-3.524-3.849-3.524c-1.524,0-2.724,0.4-3.924,0.95l-0.575-1.575c1.425-0.649,2.825-1.074,4.699-1.074
			c1.824,0,3.224,0.475,4.174,1.425c0.875,0.875,1.325,2.124,1.325,3.773v7.898h-1.85v-1.949c-0.9,1.175-2.399,2.225-4.674,2.225
			C146.06,197.062,143.636,195.688,143.636,193.038z M153.158,192.038v-1.249c-0.95-0.275-2.224-0.551-3.799-0.551
			c-2.424,0-3.774,1.05-3.774,2.675v0.05c0,1.625,1.5,2.574,3.25,2.574C151.209,195.537,153.158,194.088,153.158,192.038z"/>
		<path fill="#939393" d="M158.335,190.363v-0.05c0-4.224,3.075-6.724,6.174-6.724c2.399,0,3.949,1.3,4.949,2.75v-7.798h1.924
			v18.245h-1.924v-2.6c-1.05,1.55-2.574,2.875-4.949,2.875C161.41,197.062,158.335,194.612,158.335,190.363z M169.532,190.339v-0.05
			c0-2.975-2.274-4.975-4.674-4.975c-2.499,0-4.549,1.85-4.549,4.975v0.05c0,3.049,2.125,4.999,4.549,4.999
			C167.258,195.338,169.532,193.312,169.532,190.339z"/>
		<path fill="#939393" d="M183.51,179.291h6.548c3.949,0,6.548,2.1,6.548,5.549v0.05c0,3.774-3.149,5.724-6.874,5.724h-4.249v6.174
			h-1.974V179.291z M189.808,188.814c2.899,0,4.799-1.55,4.799-3.85v-0.05c0-2.499-1.875-3.799-4.699-3.799h-4.424v7.698H189.808z"
			/>
		<path fill="#939393" d="M200.059,178.542h1.925v18.245h-1.925V178.542z"/>
		<path fill="#939393" d="M206.259,191.889v-8.023h1.924v7.548c0,2.399,1.3,3.899,3.574,3.899c2.199,0,3.874-1.625,3.874-4.049
			v-7.398h1.899v12.922h-1.899v-2.249c-0.875,1.399-2.199,2.524-4.424,2.524C208.083,197.062,206.259,194.963,206.259,191.889z"/>
		<path fill="#939393" d="M221.709,199.036l0.875-1.499c1.475,1.074,3.124,1.649,4.974,1.649c2.85,0,4.699-1.574,4.699-4.599v-1.524
			c-1.125,1.499-2.699,2.724-5.074,2.724c-3.1,0-6.073-2.324-6.073-6.048v-0.051c0-3.773,2.999-6.099,6.073-6.099
			c2.424,0,3.999,1.2,5.049,2.6v-2.324h1.924v10.673c0,1.999-0.6,3.523-1.648,4.573c-1.15,1.15-2.875,1.725-4.924,1.725
			C225.433,200.836,223.434,200.236,221.709,199.036z M232.307,189.714v-0.05c0-2.649-2.3-4.374-4.749-4.374
			s-4.475,1.699-4.475,4.349v0.05c0,2.6,2.075,4.399,4.475,4.399C230.007,194.088,232.307,192.313,232.307,189.714z"/>
		<path fill="#939393" d="M237.934,188.265h6.948v2.024h-6.948V188.265z"/>
		<path fill="#939393" d="M248.708,178.916h2.199v2.125h-2.199V178.916z M248.833,183.865h1.925v12.922h-1.925V183.865z"/>
		<path fill="#939393" d="M255.233,183.865h1.924v2.249c0.85-1.399,2.199-2.524,4.424-2.524c3.125,0,4.949,2.1,4.949,5.174v8.023
			h-1.925v-7.548c0-2.399-1.3-3.899-3.573-3.899c-2.225,0-3.875,1.625-3.875,4.049v7.398h-1.924V183.865z"/>
		<path fill="#939393" d="M278.857,185.564h-1.774v-1.674h1.774v-1.125c0-1.475,0.399-2.6,1.124-3.324c0.65-0.65,1.6-1,2.775-1
			c0.899,0,1.499,0.101,2.124,0.325v1.675c-0.7-0.2-1.225-0.325-1.874-0.325c-1.5,0-2.25,0.899-2.25,2.749v1.05h4.1v1.649h-4.074
			v11.223h-1.925V185.564z"/>
		<path fill="#939393" d="M286.257,190.389v-0.05c0-3.649,2.85-6.749,6.749-6.749c3.874,0,6.724,3.05,6.724,6.699v0.05
			c0,3.649-2.875,6.748-6.773,6.748C289.081,197.087,286.257,194.038,286.257,190.389z M297.755,190.389v-0.05
			c0-2.774-2.074-5.049-4.799-5.049c-2.8,0-4.725,2.274-4.725,4.999v0.05c0,2.774,2.05,5.023,4.774,5.023
			C295.806,195.362,297.755,193.113,297.755,190.389z"/>
		<path fill="#939393" d="M303.207,183.865h1.925v3.374c0.949-2.149,2.824-3.699,5.273-3.599v2.074h-0.15
			c-2.824,0-5.123,2.024-5.123,5.924v5.148h-1.925V183.865z"/>
		<path fill="#939393" d="M321.157,179.291h1.999l6.373,9.548l6.374-9.548h1.999v17.496h-1.975v-14.172l-6.373,9.373h-0.101
			l-6.373-9.348v14.146h-1.924V179.291z"/>
		<path fill="#939393" d="M341.557,193.038v-0.05c0-2.725,2.249-4.174,5.523-4.174c1.649,0,2.824,0.225,3.974,0.55v-0.45
			c0-2.324-1.424-3.524-3.849-3.524c-1.524,0-2.724,0.4-3.924,0.95l-0.575-1.575c1.425-0.649,2.824-1.074,4.699-1.074
			c1.824,0,3.225,0.475,4.174,1.425c0.875,0.875,1.324,2.124,1.324,3.773v7.898h-1.85v-1.949c-0.899,1.175-2.398,2.225-4.674,2.225
			C343.981,197.062,341.557,195.688,341.557,193.038z M351.079,192.038v-1.249c-0.949-0.275-2.225-0.551-3.799-0.551
			c-2.424,0-3.774,1.05-3.774,2.675v0.05c0,1.625,1.5,2.574,3.249,2.574C349.13,195.537,351.079,194.088,351.079,192.038z"/>
		<path fill="#939393" d="M356.206,190.389v-0.05c0-3.649,2.85-6.749,6.624-6.749c2.449,0,3.974,1.025,5.174,2.3l-1.274,1.35
			c-1.025-1.074-2.175-1.949-3.924-1.949c-2.625,0-4.625,2.225-4.625,4.999v0.05c0,2.799,2.05,5.023,4.75,5.023
			c1.648,0,2.924-0.824,3.948-1.925l1.225,1.15c-1.3,1.449-2.849,2.499-5.273,2.499
			C359.056,197.087,356.206,194.013,356.206,190.389z"/>
	</g>
	<g>
		<path fill="#939393" d="M221.524,56.565c-0.051-5.785,4.734-8.597,4.955-8.726c-2.713-3.956-6.912-4.492-8.392-4.536
			c-3.526-0.371-6.95,2.111-8.745,2.111c-1.835,0-4.603-2.075-7.584-2.016c-3.838,0.06-7.433,2.282-9.401,5.736
			c-4.066,7.036-1.033,17.377,2.861,23.064c1.947,2.788,4.224,5.896,7.205,5.788c2.917-0.119,4.003-1.859,7.521-1.859
			c3.486,0,4.508,1.859,7.549,1.787c3.126-0.046,5.096-2.798,6.977-5.608c2.252-3.187,3.155-6.338,3.19-6.501
			C227.589,65.784,221.589,63.491,221.524,56.565"/>
		<path fill="#939393" d="M215.786,39.562c1.566-1.96,2.641-4.629,2.342-7.334c-2.27,0.098-5.107,1.569-6.742,3.488
			c-1.443,1.688-2.734,4.457-2.404,7.063C211.533,42.967,214.149,41.49,215.786,39.562"/>
	</g>
	<g>
		<g>
			<path fill="none" stroke="#939393" stroke-width="2" stroke-miterlimit="10" d="M290.092,112.821h-163.01V13.495
				c0-6.887,5.606-12.495,12.49-12.495h138.94c6.891,0,12.492,5.607,12.492,12.495v99.324L290.092,112.821z"/>
		</g>
		<g>
			<path fill="none" stroke="#939393" stroke-width="1.5" stroke-miterlimit="10" d="M281.642,104.741H136.826V10.049H281.64v94.692
				H281.642z"/>
		</g>
		<g>
			<path fill="none" stroke="#939393" stroke-width="2" stroke-miterlimit="10" d="M295.884,119.353H122.205
				c-3.76,0-6.701-1.885-6.701-4.293v-2.238h187.082v2.238C302.585,117.468,299.64,119.353,295.884,119.353z"/>
		</g>
		<g>
			<path fill="none" stroke="#939393" stroke-width="1.5" stroke-miterlimit="10" d="M221.536,112.821
				c0,2.876-3.006,2.503-6.701,2.503h-11.579c-3.699,0-6.705,0.373-6.705-2.503"/>
		</g>
	</g>
</g>
</svg>
