<?xml version="1.0" encoding="utf-8"?>
<!-- Generator: Adobe Illustrator 16.0.0, SVG Export Plug-In . SVG Version: 6.00 Build 0)  -->
<!DOCTYPE svg PUBLIC "-//W3C//DTD SVG 1.1//EN" "http://www.w3.org/Graphics/SVG/1.1/DTD/svg11.dtd">
<svg version="1.1" id="Capa_1" xmlns="http://www.w3.org/2000/svg" xmlns:xlink="http://www.w3.org/1999/xlink" x="0px" y="0px"
	 width="418.088px" height="216.088px" viewBox="0 0 418.088 216.088" enable-background="new 0 0 418.088 216.088"
	 xml:space="preserve">
<g>
	<path fill="none" stroke="#939393" stroke-width="2" stroke-miterlimit="10" d="M402.508,215.088H15.585
		C7.547,215.088,1,208.565,1,200.524v-24.181c0-8.036,6.547-14.573,14.585-14.573h386.919c8.031,0,14.584,6.537,14.584,14.573
		v24.181C417.096,208.565,410.543,215.088,402.508,215.088"/>
	<g enable-background="new    ">
		<path fill="#939393" d="M39.877,179.291h6.073c5.499,0,9.298,3.774,9.298,8.698v0.05c0,4.924-3.799,8.748-9.298,8.748h-6.073
			V179.291z M41.852,181.116v13.847h4.099c4.424,0,7.248-3,7.248-6.874v-0.05c0-3.874-2.824-6.923-7.248-6.923H41.852z"/>
		<path fill="#939393" d="M58.302,190.363v-0.05c0-3.724,2.625-6.724,6.199-6.724c3.824,0,6.023,3.05,6.023,6.824
			c0,0.25,0,0.399-0.025,0.624H60.252c0.275,2.8,2.25,4.374,4.549,4.374c1.774,0,3.024-0.725,4.074-1.824l1.2,1.075
			c-1.299,1.449-2.874,2.424-5.324,2.424C61.202,197.087,58.302,194.362,58.302,190.363z M68.575,189.614
			c-0.2-2.35-1.549-4.399-4.124-4.399c-2.25,0-3.949,1.875-4.199,4.399H68.575z"/>
		<path fill="#939393" d="M72.827,195.138l0.975-1.375c1.4,1.05,2.95,1.649,4.474,1.649c1.55,0,2.674-0.8,2.674-2.049v-0.051
			c0-1.299-1.524-1.799-3.224-2.274c-2.024-0.574-4.274-1.274-4.274-3.648v-0.05c0-2.225,1.85-3.699,4.399-3.699
			c1.575,0,3.324,0.55,4.649,1.425l-0.875,1.449c-1.2-0.774-2.574-1.25-3.824-1.25c-1.524,0-2.499,0.8-2.499,1.875v0.05
			c0,1.225,1.6,1.699,3.324,2.225c2,0.6,4.149,1.375,4.149,3.699v0.05c0,2.449-2.024,3.874-4.599,3.874
			C76.326,197.037,74.277,196.312,72.827,195.138z"/>
		<path fill="#939393" d="M85.552,190.389v-0.05c0-3.649,2.849-6.749,6.624-6.749c2.449,0,3.974,1.025,5.174,2.3l-1.275,1.35
			c-1.025-1.074-2.174-1.949-3.924-1.949c-2.625,0-4.624,2.225-4.624,4.999v0.05c0,2.799,2.049,5.023,4.749,5.023
			c1.649,0,2.924-0.824,3.949-1.925l1.225,1.15c-1.299,1.449-2.849,2.499-5.273,2.499C88.401,197.087,85.552,194.013,85.552,190.389
			z"/>
		<path fill="#939393" d="M99.652,193.038v-0.05c0-2.725,2.25-4.174,5.523-4.174c1.65,0,2.824,0.225,3.974,0.55v-0.45
			c0-2.324-1.425-3.524-3.849-3.524c-1.524,0-2.724,0.4-3.924,0.95l-0.575-1.575c1.425-0.649,2.825-1.074,4.699-1.074
			c1.824,0,3.224,0.475,4.174,1.425c0.875,0.875,1.325,2.124,1.325,3.773v7.898h-1.85v-1.949c-0.9,1.175-2.399,2.225-4.674,2.225
			C102.076,197.062,99.652,195.688,99.652,193.038z M109.174,192.038v-1.249c-0.95-0.275-2.224-0.551-3.799-0.551
			c-2.424,0-3.774,1.05-3.774,2.675v0.05c0,1.625,1.5,2.574,3.25,2.574C107.225,195.537,109.174,194.088,109.174,192.038z"/>
		<path fill="#939393" d="M115.102,183.865h1.925v3.374c0.95-2.149,2.824-3.699,5.273-3.599v2.074h-0.15
			c-2.824,0-5.124,2.024-5.124,5.924v5.148h-1.925V183.865z"/>
		<path fill="#939393" d="M124.552,199.036l0.875-1.499c1.475,1.074,3.124,1.649,4.974,1.649c2.849,0,4.699-1.574,4.699-4.599
			v-1.524c-1.125,1.499-2.699,2.724-5.074,2.724c-3.099,0-6.074-2.324-6.074-6.048v-0.051c0-3.773,3-6.099,6.074-6.099
			c2.424,0,3.999,1.2,5.049,2.6v-2.324h1.924v10.673c0,1.999-0.6,3.523-1.649,4.573c-1.15,1.15-2.875,1.725-4.924,1.725
			C128.276,200.836,126.276,200.236,124.552,199.036z M135.149,189.714v-0.05c0-2.649-2.299-4.374-4.749-4.374
			c-2.45,0-4.474,1.699-4.474,4.349v0.05c0,2.6,2.075,4.399,4.474,4.399C132.85,194.088,135.149,192.313,135.149,189.714z"/>
		<path fill="#939393" d="M140.327,193.038v-0.05c0-2.725,2.25-4.174,5.523-4.174c1.65,0,2.824,0.225,3.974,0.55v-0.45
			c0-2.324-1.425-3.524-3.849-3.524c-1.524,0-2.724,0.4-3.924,0.95l-0.575-1.575c1.425-0.649,2.825-1.074,4.699-1.074
			c1.824,0,3.224,0.475,4.174,1.425c0.875,0.875,1.325,2.124,1.325,3.773v7.898h-1.85v-1.949c-0.9,1.175-2.399,2.225-4.674,2.225
			C142.751,197.062,140.327,195.688,140.327,193.038z M149.849,192.038v-1.249c-0.95-0.275-2.224-0.551-3.799-0.551
			c-2.424,0-3.774,1.05-3.774,2.675v0.05c0,1.625,1.5,2.574,3.25,2.574C147.9,195.537,149.849,194.088,149.849,192.038z"/>
		<path fill="#939393" d="M155.776,183.865h1.925v3.374c0.95-2.149,2.824-3.699,5.273-3.599v2.074h-0.15
			c-2.824,0-5.124,2.024-5.124,5.924v5.148h-1.925V183.865z"/>
		<path fill="#939393" d="M173.726,179.291h6.548c3.949,0,6.548,2.1,6.548,5.549v0.05c0,3.774-3.149,5.724-6.874,5.724H175.7v6.174
			h-1.974V179.291z M180.024,188.814c2.899,0,4.799-1.55,4.799-3.85v-0.05c0-2.499-1.875-3.799-4.699-3.799H175.7v7.698H180.024z"/>
		<path fill="#939393" d="M190.275,178.542h1.925v18.245h-1.925V178.542z"/>
		<path fill="#939393" d="M196.476,191.889v-8.023h1.924v7.548c0,2.399,1.3,3.899,3.574,3.899c2.199,0,3.874-1.625,3.874-4.049
			v-7.398h1.899v12.922h-1.899v-2.249c-0.875,1.399-2.2,2.524-4.424,2.524C198.3,197.062,196.476,194.963,196.476,191.889z"/>
		<path fill="#939393" d="M211.925,199.036l0.875-1.499c1.475,1.074,3.125,1.649,4.975,1.649c2.849,0,4.698-1.574,4.698-4.599
			v-1.524c-1.124,1.499-2.699,2.724-5.073,2.724c-3.1,0-6.074-2.324-6.074-6.048v-0.051c0-3.773,3-6.099,6.074-6.099
			c2.424,0,3.998,1.2,5.049,2.6v-2.324h1.924v10.673c0,1.999-0.6,3.523-1.649,4.573c-1.149,1.15-2.874,1.725-4.924,1.725
			C215.649,200.836,213.649,200.236,211.925,199.036z M222.522,189.714v-0.05c0-2.649-2.299-4.374-4.748-4.374
			s-4.475,1.699-4.475,4.349v0.05c0,2.6,2.074,4.399,4.475,4.399C220.224,194.088,222.522,192.313,222.522,189.714z"/>
		<path fill="#939393" d="M228.149,188.265h6.949v2.024h-6.949V188.265z"/>
		<path fill="#939393" d="M238.925,178.916h2.199v2.125h-2.199V178.916z M239.05,183.865h1.924v12.922h-1.924V183.865z"/>
		<path fill="#939393" d="M245.449,183.865h1.925v2.249c0.85-1.399,2.199-2.524,4.424-2.524c3.124,0,4.949,2.1,4.949,5.174v8.023
			h-1.926v-7.548c0-2.399-1.299-3.899-3.573-3.899c-2.225,0-3.874,1.625-3.874,4.049v7.398h-1.925V183.865z"/>
		<path fill="#939393" d="M268.349,183.865h1.926v2.6c1.049-1.55,2.574-2.875,4.948-2.875c3.099,0,6.173,2.45,6.173,6.699v0.05
			c0,4.224-3.049,6.724-6.173,6.724c-2.399,0-3.949-1.3-4.948-2.75v6.474h-1.926V183.865z M279.421,190.363v-0.05
			c0-3.049-2.1-4.999-4.549-4.999c-2.398,0-4.674,2.025-4.674,4.975v0.05c0,2.999,2.275,4.999,4.674,4.999
			C277.372,195.338,279.421,193.488,279.421,190.363z"/>
		<path fill="#939393" d="M283.974,193.038v-0.05c0-2.725,2.25-4.174,5.523-4.174c1.65,0,2.824,0.225,3.975,0.55v-0.45
			c0-2.324-1.425-3.524-3.85-3.524c-1.523,0-2.724,0.4-3.924,0.95l-0.574-1.575c1.424-0.649,2.824-1.074,4.699-1.074
			c1.824,0,3.224,0.475,4.174,1.425c0.875,0.875,1.324,2.124,1.324,3.773v7.898h-1.85v-1.949c-0.9,1.175-2.399,2.225-4.674,2.225
			C286.398,197.062,283.974,195.688,283.974,193.038z M293.497,192.038v-1.249c-0.95-0.275-2.225-0.551-3.799-0.551
			c-2.425,0-3.775,1.05-3.775,2.675v0.05c0,1.625,1.5,2.574,3.25,2.574C291.548,195.537,293.497,194.088,293.497,192.038z"/>
		<path fill="#939393" d="M299.423,183.865h1.926v3.374c0.949-2.149,2.824-3.699,5.273-3.599v2.074h-0.15
			c-2.824,0-5.123,2.024-5.123,5.924v5.148h-1.926V183.865z"/>
		<path fill="#939393" d="M307.945,193.038v-0.05c0-2.725,2.249-4.174,5.523-4.174c1.649,0,2.824,0.225,3.974,0.55v-0.45
			c0-2.324-1.424-3.524-3.849-3.524c-1.524,0-2.724,0.4-3.924,0.95l-0.575-1.575c1.425-0.649,2.824-1.074,4.699-1.074
			c1.824,0,3.225,0.475,4.174,1.425c0.875,0.875,1.324,2.124,1.324,3.773v7.898h-1.85v-1.949c-0.899,1.175-2.398,2.225-4.674,2.225
			C310.37,197.062,307.945,195.688,307.945,193.038z M317.468,192.038v-1.249c-0.949-0.275-2.225-0.551-3.799-0.551
			c-2.424,0-3.774,1.05-3.774,2.675v0.05c0,1.625,1.5,2.574,3.249,2.574C315.519,195.537,317.468,194.088,317.468,192.038z"/>
		<path fill="#939393" d="M331.22,179.291h2l6.373,9.548l6.373-9.548h2v17.496h-1.975v-14.172l-6.373,9.373h-0.101l-6.374-9.348
			v14.146h-1.924V179.291z"/>
		<path fill="#939393" d="M351.62,193.038v-0.05c0-2.725,2.249-4.174,5.523-4.174c1.649,0,2.824,0.225,3.974,0.55v-0.45
			c0-2.324-1.425-3.524-3.849-3.524c-1.525,0-2.725,0.4-3.924,0.95l-0.576-1.575c1.426-0.649,2.825-1.074,4.699-1.074
			c1.824,0,3.225,0.475,4.174,1.425c0.875,0.875,1.325,2.124,1.325,3.773v7.898h-1.85v-1.949c-0.899,1.175-2.399,2.225-4.674,2.225
			C354.044,197.062,351.62,195.688,351.62,193.038z M361.142,192.038v-1.249c-0.949-0.275-2.224-0.551-3.799-0.551
			c-2.424,0-3.773,1.05-3.773,2.675v0.05c0,1.625,1.5,2.574,3.249,2.574C359.192,195.537,361.142,194.088,361.142,192.038z"/>
		<path fill="#939393" d="M366.27,190.389v-0.05c0-3.649,2.849-6.749,6.624-6.749c2.449,0,3.974,1.025,5.174,2.3l-1.275,1.35
			c-1.025-1.074-2.174-1.949-3.924-1.949c-2.625,0-4.624,2.225-4.624,4.999v0.05c0,2.799,2.05,5.023,4.749,5.023
			c1.649,0,2.924-0.824,3.949-1.925l1.225,1.15c-1.3,1.449-2.85,2.499-5.273,2.499C369.118,197.087,366.27,194.013,366.27,190.389z"
			/>
	</g>
	<g>
		<path fill="#939393" d="M221.524,56.565c-0.051-5.785,4.734-8.597,4.955-8.726c-2.713-3.956-6.912-4.492-8.392-4.536
			c-3.526-0.371-6.95,2.111-8.745,2.111c-1.835,0-4.603-2.075-7.584-2.016c-3.838,0.06-7.433,2.282-9.401,5.736
			c-4.066,7.036-1.033,17.377,2.861,23.064c1.947,2.788,4.224,5.896,7.205,5.788c2.917-0.119,4.003-1.859,7.521-1.859
			c3.486,0,4.508,1.859,7.549,1.787c3.126-0.046,5.096-2.798,6.977-5.608c2.252-3.187,3.155-6.338,3.19-6.501
			C227.589,65.784,221.589,63.491,221.524,56.565"/>
		<path fill="#939393" d="M215.786,39.562c1.566-1.96,2.641-4.629,2.342-7.334c-2.27,0.098-5.107,1.569-6.742,3.488
			c-1.443,1.688-2.734,4.457-2.404,7.063C211.533,42.967,214.149,41.49,215.786,39.562"/>
	</g>
	<g>
		<g>
			<path fill="none" stroke="#939393" stroke-width="2" stroke-miterlimit="10" d="M290.092,112.821h-163.01V13.495
				c0-6.887,5.606-12.495,12.49-12.495h138.94c6.891,0,12.492,5.607,12.492,12.495v99.324L290.092,112.821z"/>
		</g>
		<g>
			<path fill="none" stroke="#939393" stroke-width="1.5" stroke-miterlimit="10" d="M281.642,104.741H136.826V10.049H281.64v94.692
				H281.642z"/>
		</g>
		<g>
			<path fill="none" stroke="#939393" stroke-width="2" stroke-miterlimit="10" d="M295.884,119.353H122.205
				c-3.76,0-6.701-1.885-6.701-4.293v-2.238h187.082v2.238C302.585,117.468,299.64,119.353,295.884,119.353z"/>
		</g>
		<g>
			<path fill="none" stroke="#939393" stroke-width="1.5" stroke-miterlimit="10" d="M221.536,112.821
				c0,2.876-3.006,2.503-6.701,2.503h-11.579c-3.699,0-6.705,0.373-6.705-2.503"/>
		</g>
	</g>
</g>
</svg>
