<?xml version="1.0" encoding="utf-8"?>
<!-- Generator: Adobe Illustrator 16.0.0, SVG Export Plug-In . SVG Version: 6.00 Build 0)  -->
<!DOCTYPE svg PUBLIC "-//W3C//DTD SVG 1.1//EN" "http://www.w3.org/Graphics/SVG/1.1/DTD/svg11.dtd">
<svg version="1.1" id="Capa_1" xmlns="http://www.w3.org/2000/svg" xmlns:xlink="http://www.w3.org/1999/xlink" x="0px" y="0px"
	 width="310.382px" height="478.076px" viewBox="0 0 310.382 478.076" enable-background="new 0 0 310.382 478.076"
	 xml:space="preserve">
<g>
	
		<path fill="#F9F8E5" stroke="#026C31" stroke-width="2" stroke-linecap="round" stroke-linejoin="round" stroke-miterlimit="10" d="
		M1,140.432h95.466v47.732c21.982-28.263,50.246-54.013,98.607-54.013c72.229,0,114.309,47.732,114.309,124.986v217.939h-95.467
		V289.284c0-45.222-21.354-68.46-57.783-68.46c-36.427,0-59.666,23.238-59.666,68.46v187.792H1V140.432z M152.364,89.557
		c-14.445-5.652-27.007-10.677-37.056-10.677c-19.47,0-27.006,10.677-35.799,30.776L28.635,93.954
		C43.081,41.196,62.55,7.28,106.516,7.28c21.354,0,41.452,7.537,57.155,13.817c14.445,5.653,27.006,10.678,37.055,10.678
		c19.471,0,27.008-10.678,35.801-30.775l50.873,15.702c-14.445,52.758-33.916,86.673-77.881,86.673
		C188.165,103.375,168.065,95.838,152.364,89.557z"/>
</g>
</svg>
