<?xml version="1.0" encoding="utf-8"?>
<!-- Generator: Adobe Illustrator 16.0.0, SVG Export Plug-In . SVG Version: 6.00 Build 0)  -->
<!DOCTYPE svg PUBLIC "-//W3C//DTD SVG 1.1//EN" "http://www.w3.org/Graphics/SVG/1.1/DTD/svg11.dtd">
<svg version="1.1" id="Capa_1" xmlns="http://www.w3.org/2000/svg" xmlns:xlink="http://www.w3.org/1999/xlink" x="0px" y="0px"
	 width="437.914px" height="61.941px" viewBox="0 0 437.914 61.941" enable-background="new 0 0 437.914 61.941"
	 xml:space="preserve">
<g>
	<g>
		<path fill="#026C31" d="M264.998,49.061c-0.281-0.51-0.568-0.394-0.919-0.262c-13.031,6.538-25.219,7.709-36.249,3.468
			c-12.725-4.889-20.641-15.668-23.548-20.626c6.698-1.808,11.753-7.694,11.753-15.153c0-8.787-7.233-15.833-15.957-15.833h-23.715
			c-0.524,0-0.894,0.366-0.894,0.871v47.713c0,0.508,0.37,0.874,0.894,0.874h7.231c0.524,0,0.898-0.366,0.898-0.874V32.243h4.019
			h7.883c2.127,5.002,9.761,16.33,21.681,23.33c5.758,3.383,13.59,6.369,23.292,6.369c7.621,0,16.393-1.844,26.215-6.795
			c0.277-0.152,0.446-0.51,0.256-0.863C267.096,52.915,265.278,49.562,264.998,49.061z M184.493,24.473V8.424h13.643
			c3.656,0,8.653,2.907,8.653,8.063c0,5.009-4.847,7.986-8.95,7.986H184.493z"/>
		<path fill="#026C31" d="M105.075,20.918c-6.266-1.89-12.081-3.124-12.081-7.485c0-1.159,0-5.15,9.322-5.15
			c4.921,0,8.426,2.541,9.843,3.483c0.448,0.216,0.968,0.146,1.268-0.292l4.028-5.88c0.298-0.438,0.15-1.018-0.224-1.235
			c-3.134-1.89-8.056-4.283-14.84-4.283c-12.083,0-18.644,5.446-18.644,13.357c0,5.229,2.311,8.647,5.667,11.04
			c2.162,1.528,4.998,2.616,8.353,3.777c5.742,2.034,12.975,2.471,12.975,7.773c0,2.686-1.566,6.535-9.245,6.535
			c-6.414,0-9.25-2.69-11.411-4.288c-0.448-0.361-0.97-0.287-1.34,0.146l-4.476,5.595c-0.374,0.436-0.298,1.018,0.15,1.304
			c3.802,2.692,8.649,5.446,17.077,5.446c11.259,0,18.567-5.95,18.567-14.738C120.063,27.017,113.279,23.458,105.075,20.918z"/>
		<path fill="#026C31" d="M163.761,38.925c-0.222-0.434-0.819-0.58-1.192-0.289c-2.088,1.232-4.922,3.708-11.189,3.708
			c-9.32,0-16.925-7.627-16.925-17c0-9.075,7.754-16.919,16.925-16.919c5.817,0,9.326,2.687,11.114,3.85
			c0.449,0.292,1.046,0.143,1.268-0.217l3.805-5.664c0.298-0.438,0.148-0.944-0.225-1.236C163.314,2.544,158.916,0,151.38,0
			c-14.164,0-26.245,11.402-26.245,25.343c0,14.599,11.927,25.495,26.245,25.495c8.056,0,13.649-3.414,15.961-5.23
			c0.374-0.292,0.596-0.796,0.3-1.236L163.761,38.925z"/>
		<path fill="#026C31" d="M301.711,23.821c0,0,0-0.218,0.073-0.218c4.401-2.03,6.415-5.664,6.415-10.387
			c0-3.846-1.867-7.767-6.039-10.166c-2.386-1.378-5.743-2.396-9.846-2.396h-16.927c-0.522,0-0.895,0.366-0.895,0.871v47.713
			c0,0.508,0.372,0.874,0.895,0.874h19.313c5.146,0,9.099-1.233,11.859-3.052c4.027-2.612,5.817-6.532,5.817-10.239
			C312.378,29.85,308.946,25.783,301.711,23.821z M283.516,8.499h7.756c2.088,0,3.58,0.362,4.696,0.942
			c2.089,1.02,2.986,2.76,2.986,4.649c0,4.573-3.21,7.19-11.339,7.19h-4.1V8.499z M299.998,40.958
			c-1.417,0.801-3.655,1.312-6.489,1.312h-9.993V29.123h8.722c7.909,0,10.892,2.617,10.892,6.535
			C303.129,37.691,302.309,39.728,299.998,40.958z"/>
		<path fill="#026C31" d="M347.645,23.821c0,0,0-0.218,0.075-0.218c4.4-2.03,6.416-5.664,6.416-10.387
			c0-3.846-1.867-7.767-6.041-10.166c-2.391-1.378-5.739-2.396-9.844-2.396H321.32c-0.521,0-0.894,0.366-0.894,0.871v47.713
			c0,0.508,0.372,0.874,0.894,0.874h19.316c5.146,0,9.098-1.233,11.859-3.052c4.026-2.612,5.814-6.532,5.814-10.239
			C358.311,29.85,354.881,25.783,347.645,23.821z M329.451,8.499h7.754c2.09,0,3.584,0.362,4.699,0.942
			c2.089,1.02,2.984,2.76,2.984,4.649c0,4.573-3.208,7.19-11.337,7.19h-4.101V8.499z M345.932,40.958
			c-1.416,0.801-3.657,1.312-6.488,1.312h-9.992V29.123h8.725c7.904,0,10.889,2.617,10.889,6.535
			C349.064,37.691,348.245,39.728,345.932,40.958z"/>
		<path fill="#026C31" d="M394.892,42.27h-19.686V1.524c0-0.504-0.37-0.871-0.893-0.871h-7.237c-0.518,0-0.892,0.366-0.892,0.871
			v47.713c0,0.508,0.374,0.874,0.892,0.874h27.815c0.528,0,0.896-0.366,0.896-0.874V43.14C395.788,42.63,395.42,42.27,394.892,42.27
			z"/>
		<path fill="#026C31" d="M437.208,42.27c-0.639,0-18.306,0-18.306,0c-2.835,0-5.075-0.511-6.495-1.312
			c-2.312-1.23-3.128-3.267-3.128-5.301c0-3.918,2.979-6.535,10.885-6.535h4.7h4.024c0,0,1.708,0,2.304,0
			c0.594,0,0.654-0.682,0.654-0.682v-6.537c0,0-0.089-0.598-0.674-0.598c-0.581,0-7.358-0.045-7.358-0.045
			c-7.401-0.208-12.385-2.786-12.385-7.17c0-1.889,0.898-3.629,2.984-4.649c1.119-0.581,2.608-0.942,4.699-0.942h2.677h5.084
			c0,0,7.671,0,8.325,0c0.662,0,0.69-0.654,0.69-0.654v-6.32c0-0.504-0.37-0.871-0.889-0.871h-16.935
			c-4.096,0-7.456,1.018-9.842,2.396c-4.176,2.399-6.04,6.32-6.04,10.166c0,4.723,2.012,8.357,6.41,10.387
			c0.073,0,2.102,0.218,2.102,0.218c-7.239,1.962-10.663,6.028-10.663,12.999c0,3.707,1.786,7.627,5.813,10.239
			c2.765,1.818,6.716,3.052,11.859,3.052h19.312c0.521,0,0.896-0.366,0.896-0.874c0,0,0-6.163,0-6.236
			C437.914,42.924,437.848,42.27,437.208,42.27z"/>
		<path fill="#026C31" d="M249.565,30.326h5.066c0,0,0,12.174,0,12.524c0,0.526,0.582,0.703,0.874,0.603
			c2.176-0.729,4.378-1.629,6.604-2.679c0.529-0.14,0.505-0.678,0.505-0.678V18.697c0-8.932-5.41-18.697-17.551-18.697
			c-12.14,0-17.613,9.765-17.613,18.697v24.866c0,0.448,0.33,0.771,0.789,0.771h6.402c0.46,0,0.793-0.323,0.793-0.771V30.326h6.416
			H249.565z M235.436,18.829c0-7.134,3.891-11.439,9.629-11.439c5.74,0,9.567,4.305,9.567,11.439v4.562h-5.066h-7.714h-6.416V18.829
			z"/>
	</g>
	<g>
		<path fill="#026C31" d="M4.59,44.175v5.902H0V6.558h4.59v18.898c2.504-3.696,6.141-6.856,11.804-6.856
			c7.392,0,14.725,5.843,14.725,15.978v0.119c0,10.075-7.273,16.037-14.725,16.037C10.671,50.733,6.975,47.633,4.59,44.175z
			 M26.41,34.756v-0.119c0-7.273-5.008-11.923-10.85-11.923c-5.723,0-11.148,4.829-11.148,11.864v0.119
			c0,7.154,5.425,11.923,11.148,11.923C21.521,46.619,26.41,42.208,26.41,34.756z"/>
		<path fill="#026C31" d="M61.161,19.256h4.889L53.113,51.091c-2.623,6.379-5.604,8.704-10.254,8.704
			c-2.563,0-4.471-0.537-6.558-1.551l1.55-3.636c1.49,0.774,2.861,1.132,4.829,1.132c2.743,0,4.471-1.431,6.319-5.782L34.99,19.256
			h5.067L51.265,44.95L61.161,19.256z"/>
	</g>
</g>
</svg>
